<?xml version="1.0" encoding="UTF-8" standalone="no"?>
<!-- Created with Inkscape (http://www.inkscape.org/) -->

<svg
   xmlns:dc="http://purl.org/dc/elements/1.1/"
   xmlns:cc="http://creativecommons.org/ns#"
   xmlns:rdf="http://www.w3.org/1999/02/22-rdf-syntax-ns#"
   xmlns:svg="http://www.w3.org/2000/svg"
   xmlns="http://www.w3.org/2000/svg"
   version="1.1"
   width="334"
   height="93"
   id="svg2">
  <metadata
     id="metadata8">
    <rdf:RDF>
      <cc:Work
         rdf:about="">
        <dc:format>image/svg+xml</dc:format>
        <dc:type
           rdf:resource="http://purl.org/dc/dcmitype/StillImage" />
        <dc:title></dc:title>
      </cc:Work>
    </rdf:RDF>
  </metadata>
  <defs
     id="defs6" />
  <path
     d="m 62.86648,70.213871 c -2.57607,-0.809845 -4.77819,-2.438556 -6.25,-4.62257 -2.0827,-3.090518 -2.27249,-4.492106 -2.27249,-16.78177 l 0,-13.409615 4.25,0.307498 4.25,0.307498 0.5,12.333867 c 0.43976,10.847902 0.74096,12.509853 2.5,13.794592 2.04338,1.492407 6.09417,1.114474 8,-0.746389 0.55,-0.537022 1.1492,-6.580179 1.33156,-13.429237 l 0.33155,-12.452833 4.41845,0 4.41844,0 0,12.598871 c 0,14.17219 -1.24639,18.442943 -6.11761,20.961948 -4.06034,2.099681 -10.72938,2.593845 -15.3599,1.13814 z m 138.26887,0.356388 c -8.09728,-2.571676 -13.45811,-10.777877 -12.47323,-19.093646 1.55455,-13.125716 14.64197,-20.103998 26.42769,-14.091376 4.91516,2.507529 5.82934,3.731722 4.22779,5.661478 -1.03224,1.243773 -1.59986,1.158458 -4.09012,-0.614764 -6.38286,-4.545002 -13.2589,-4.268898 -18.26107,0.733263 -7.96674,7.96675 -3.96864,21.402265 7.08071,23.794521 3.93928,0.85288 9.47568,-1.542588 11.8143,-5.111764 1.74407,-2.661798 1.33236,-5.534623 -0.75405,-5.261487 -3.75339,0.491367 -6.76338,-0.19957 -6.76338,-1.55252 0,-1.868481 3.39378,-2.741142 9.08021,-2.334846 3.87215,0.276665 4.4547,0.625557 4.70155,2.815794 0.40595,3.601923 -3.77656,11.16477 -7.28686,13.176143 -3.73544,2.140381 -10.12311,3.016339 -13.70354,1.879204 z M 25.34399,53.014912 l 0,-17.5 10,0 10,0 0,4 0,4 -5.5,0 c -5.12823,0 -5.5,0.161104 -5.5,2.383369 0,2.530843 2.10598,3.577435 7.25,3.602976 2.47359,0.01228 2.75,0.36545 2.75,3.513655 l 0,3.5 -5,0 c -4.86919,0 -5,0.07712 -5,2.94774 0,2.850956 0.17238,2.957665 5.25,3.25 l 5.25,0.30226 0.31036,3.75 0.31037,3.75 -10.06037,0 -10.06036,0 0,-17.5 z m 68,0 0,-17.5 7.25,0.0056 c 13.62813,0.01048 17.75,2.594612 17.75,11.128036 0,3.981926 -0.45217,5.069072 -3,7.212933 -1.65,1.388384 -3,2.812566 -3,3.16485 0,0.352284 2.025,3.272156 4.5,6.488604 2.475,3.216448 4.5,6.107268 4.5,6.424044 0,0.316753 -2.36749,0.575933 -5.26109,0.575933 l -5.26108,0 -4.21883,-6.75 -4.21882,-6.75 -0.0201,6.75 -0.0201,6.75 -4.5,0 -4.5,0 0,-17.5 z m 14.06574,-2.535184 c 4.00225,-2.141939 1.44349,-7.964816 -3.5,-7.964816 -1.18903,0 -1.56574,1.082692 -1.56574,4.5 0,4.796257 1.13165,5.570275 5.06574,3.464816 z m 20.93426,2.535184 0,-17.5 10,0 10,0 0,4 0,4 -5.5,0 c -5.2,0 -5.5,0.136364 -5.5,2.5 0,1.375 0.5625,2.566627 1.25,2.64806 0.6875,0.08143 1.925,0.239806 2.75,0.35194 0.825,0.112134 2.5125,0.270507 3.75,0.35194 1.87656,0.123486 2.25,0.728967 2.25,3.64806 l 0,3.5 -5,0 c -4.88889,0 -5,0.06667 -5,3 0,2.969697 0.0556,3 5.5,3 l 5.5,0 0,4 0,4 -10,0 -10,0 0,-17.5 z m 29,-0.116307 0,-17.616308 9.75,0.416779 c 13.4107,0.573262 16.25,2.74682 16.25,12.439812 0,3.673365 -0.55269,5.082564 -2.92308,7.452947 -1.73671,1.736716 -4.07041,2.969893 -5.75,3.038427 -1.5548,0.06344 -3.27692,0.219901 -3.82692,0.347685 -0.55,0.127785 -1.7875,0.300878 -2.75,0.384651 -1.43608,0.124992 -1.75,1.13891 -1.75,5.652314 l 0,5.5 -4.5,0 -4.5,0 0,-17.616307 z m 15.98922,-2.870707 c 1.87313,-2.256983 0.44048,-6.188322 -2.5265,-6.932988 -3.59541,-0.902389 -4.46272,-0.03191 -4.46272,4.479019 0,3.674938 0.19426,3.940983 2.87756,3.940983 1.58265,0 3.4329,-0.669156 4.11166,-1.487014 z m 51.94395,18.237014 c 1.09937,-2.79923 9.98951,-22.575988 13.06071,-29.05452 l 2.27763,-4.804519 7.86424,17.155656 c 4.32534,9.43561 7.86425,17.560144 7.86425,18.054519 0,0.494375 -0.91599,0.898864 -2.03554,0.898864 -1.46005,0 -2.58088,-1.272229 -3.96446,-4.5 l -1.92893,-4.5 -7.95282,0 -7.95283,0 -1.71857,4.5 c -1.36004,3.561201 -2.20661,4.5 -4.05796,4.5 -2.02119,0 -2.2192,-0.306036 -1.45572,-2.25 z m 20.76215,-12 c -3.85861,-9.299479 -5.12183,-11.718768 -5.76821,-11.047101 -0.4219,0.438406 -1.90333,3.384601 -3.29207,6.547101 l -2.52498,5.75 6.05196,0 c 4.45152,0 5.9148,-0.330562 5.5333,-1.25 z m 17.30468,-3.25 0,-17.5 3.75,0.02386 c 6.0225,0.03831 11.61512,1.710953 13.5,4.037575 1.06049,1.309029 1.75,3.854489 1.75,6.460458 0,3.520002 -0.52753,4.74421 -2.9072,6.746568 -1.59896,1.345436 -4.74896,2.740756 -7,3.100712 -4.13588,0.661353 -4.5312,1.231134 -4.25368,6.13083 0.27949,4.934347 -0.9305,8.5 -2.88443,8.5 -1.86512,-3e-6 -1.95469,-0.801897 -1.95469,-17.500003 z m 13.75,-2.711931 c 1.74243,-1.439887 1.56443,-7.282222 -0.2682,-8.803176 -0.83501,-0.692998 -3.17298,-1.310598 -5.19549,-1.372445 l -3.67728,-0.112448 -0.14912,4.5 c -0.2498,7.538625 0.18841,8.288149 4.38703,7.503619 2.00918,-0.375425 4.21556,-1.147423 4.90306,-1.71555 z m 13.9498,-10.360994 c -3.41324,-3.41324 -4.175,-7.353989 -2.29249,-11.859474 2.80742,-6.719119 11.61608,-8.271482 16.90786,-2.9797 2.91459,2.914588 3.61283,5.751035 2.48609,10.099253 -1.86077,7.180966 -11.88269,9.958688 -17.10146,4.739921 z m 13.5502,-2.507445 c 2.3417,-2.865168 2.20997,-7.065158 -0.32258,-10.284771 -1.60419,-2.039401 -2.95134,-2.634859 -5.96105,-2.634859 -5.05931,0 -7.96637,2.961649 -7.96637,8.115981 0,7.280533 9.58491,10.511587 14.25,4.803649 z m -10.47166,-1.66963 c -0.25021,-0.9625 -0.38011,-3.325 -0.28868,-5.25 0.16374,-3.447277 0.23286,-3.5 4.58829,-3.5 4.08068,0 4.44648,0.212293 4.73847,2.75 0.18629,1.619047 -0.16673,2.75 -0.85841,2.75 -0.7538,0 -0.94996,0.895921 -0.54737,2.5 0.75146,2.994034 -0.8933,3.335179 -2.41064,0.5 -0.5887,-1.1 -1.50453,-2 -2.03518,-2 -0.53065,0 -0.96482,0.9 -0.96482,2 0,2.463657 -1.59942,2.643637 -2.22166,0.25 z m 6.97667,-6 c 0.25808,-0.783655 -0.55212,-1.25 -2.17168,-1.25 -1.6805,0 -2.58333,0.548528 -2.58333,1.569551 0,1.880616 4.12165,1.603629 4.75501,-0.319551 z"
     id="path2997"
     style="fill:#477222" />
</svg>
